<svg id="Layer_1" data-name="Layer 1" xmlns="http://www.w3.org/2000/svg" xmlns:xlink="http://www.w3.org/1999/xlink" viewBox="0 0 162 162"><defs><style>.cls-1{fill:url(#linear-gradient);}.cls-2{fill:url(#linear-gradient-2);}.cls-3{fill:#fff;}</style><linearGradient id="linear-gradient" x1="106.95" y1="20.14" x2="42.41" y2="146.73" gradientUnits="userSpaceOnUse"><stop offset="0" stop-color="#7a9f3f"/><stop offset="1" stop-color="#f1c217"/></linearGradient><linearGradient id="linear-gradient-2" x1="121.47" y1="25.67" x2="54.09" y2="157.81" gradientUnits="userSpaceOnUse"><stop offset="0" stop-color="#f1c217"/><stop offset="1" stop-color="#7a9f3f"/></linearGradient></defs><path class="cls-1" d="M74.68,13.38C33.44,13.38,0,44.75,0,83.44c0,37.91,32.1,68.77,72.18,70a65.37,65.37,0,1,1,38.58-8.65c23-11.94,38.6-34.93,38.6-61.35C149.36,44.75,115.93,13.38,74.68,13.38Z"/><path class="cls-2" d="M87.32,18.15A75.68,75.68,0,0,0,30.51,43.42a65.4,65.4,0,1,1-17.78,50C14.52,131.57,47.22,162,87.32,162,128.56,162,162,129.8,162,90.08S128.56,18.15,87.32,18.15Z"/><rect class="cls-3" x="29.94" y="56.81" width="148.63" height="24.19" rx="12.09" transform="translate(-1.19 135.98) rotate(-65.93)"/><rect class="cls-3" x="53.62" y="56.35" width="24.04" height="84.54" rx="12.02" transform="translate(-36.51 38.62) rotate(-25.92)"/></svg>
